<?xml version="1.0" encoding="UTF-8"?> <svg xmlns="http://www.w3.org/2000/svg" width="680" height="382"> <path fill="#E74C3C" d="M0 0h680v382H0z"></path> <g fill="#FFF"> <path d="M215.81 343.17l-3.1-10.2h-15.62l-3.1 10.2h-9.78l15.11-43.01h11.1l15.18 43h-9.79zm-5.27-17.82c-2.87-9.23-4.49-14.46-4.85-15.67a43.39 43.39 0 0 1-.77-2.87c-.65 2.5-2.5 8.68-5.54 18.54h11.16zM230.99 300.33h13.33c6.07 0 10.48.87 13.23 2.6 2.74 1.73 4.11 4.48 4.11 8.24 0 2.56-.6 4.66-1.8 6.3a7.18 7.18 0 0 1-4.8 2.96v.3c2.73.6 4.68 1.73 5.88 3.4 1.2 1.65 1.8 3.86 1.8 6.61 0 3.91-1.4 6.96-4.23 9.15-2.82 2.18-6.65 3.28-11.5 3.28H231v-42.84zm9.08 16.97h5.27c2.46 0 4.25-.38 5.35-1.15 1.1-.76 1.66-2.02 1.66-3.77 0-1.65-.6-2.82-1.8-3.53-1.2-.72-3.1-1.07-5.7-1.07h-4.78v9.52zm0 7.2v11.17H246c2.5 0 4.35-.48 5.54-1.44 1.19-.96 1.78-2.42 1.78-4.4 0-3.55-2.54-5.33-7.61-5.33h-5.63zM310.18 321.7c0 7.08-1.76 12.53-5.27 16.34-3.52 3.81-8.56 5.71-15.12 5.71-6.56 0-11.6-1.9-15.12-5.71-3.51-3.81-5.27-9.28-5.27-16.4 0-7.14 1.77-12.58 5.29-16.34s8.58-5.64 15.16-5.64 11.62 1.9 15.1 5.68c3.49 3.8 5.23 9.24 5.23 16.35zm-31.26 0c0 4.78.9 8.38 2.73 10.8 1.81 2.42 4.53 3.64 8.14 3.64 7.25 0 10.87-4.82 10.87-14.45 0-9.64-3.6-14.47-10.81-14.47-3.62 0-6.34 1.22-8.18 3.65-1.83 2.43-2.75 6.04-2.75 10.82zM353.92 300.33v27.72c0 3.16-.7 5.94-2.12 8.32a13.83 13.83 0 0 1-6.14 5.48 21.93 21.93 0 0 1-9.5 1.9c-5.5 0-9.78-1.4-12.83-4.23-3.04-2.82-4.57-6.69-4.57-11.59v-27.6h9.06v26.22c0 3.3.66 5.73 1.99 7.27 1.33 1.55 3.52 2.31 6.6 2.31 2.96 0 5.11-.77 6.45-2.32 1.34-1.56 2-4 2-7.31v-26.17h9.06zM380.93 343.17h-9.08v-35.28h-11.63v-7.56h32.34v7.56h-11.63v35.28zM432.88 343.17l-10.32-33.6h-.26c.37 6.83.55 11.39.55 13.67v19.93h-8.11v-42.84h12.36l10.14 32.76h.18l10.75-32.76h12.36v42.84h-8.47v-20.28c0-.95.02-2.06.05-3.3s.16-4.58.4-9.97h-.27l-11.05 33.55h-8.31zM495.98 343.17H471.3v-42.84h24.67v7.45h-15.59v9.4h14.5v7.44h-14.5v11.04h15.59v7.5z"></path> </g> <g fill="#FFF"> <path d="M464.76 81.5h-88.4v8.84h88.4a4.43 4.43 0 0 1 4.42 4.42v159.11a4.42 4.42 0 0 1-4.42 4.42h-247.5a4.42 4.42 0 0 1-4.42-4.42V94.77a4.42 4.42 0 0 1 4.42-4.43h88.4V81.5h-88.4A13.28 13.28 0 0 0 204 94.76v159.1c0 7.32 5.95 13.27 13.26 13.27h247.5c7.3 0 13.26-5.95 13.26-13.26V94.77c0-7.32-5.95-13.27-13.26-13.27z"></path> <path d="M221.68 231.77h97.23V116.86h-97.23v114.91zm8.84-106.07h79.55v97.23h-79.55V125.7z"></path> <path d="M285.93 178a26.46 26.46 0 0 0 10.88-21.36 26.55 26.55 0 0 0-26.52-26.52 26.55 26.55 0 0 0-26.52 26.52c0 8.77 4.3 16.54 10.9 21.37a35.37 35.37 0 0 0-19.73 31.66v8.84h70.71v-8.84a35.36 35.36 0 0 0-19.72-31.66zm-33.31-21.36c0-9.75 7.93-17.68 17.68-17.68s17.67 7.93 17.67 17.68-7.93 17.68-17.68 17.68-17.67-7.93-17.67-17.68zm-8.84 53.03a26.55 26.55 0 0 1 26.52-26.52 26.55 26.55 0 0 1 26.51 26.52h-53.03zM328.77 108.02h24.47a14.3 14.3 0 0 0 14.29-14.28V37.31h-53.04v56.43a14.3 14.3 0 0 0 14.28 14.28zm-5.44-61.87h35.36v47.59c0 3-2.45 5.44-5.45 5.44h-24.47c-3 0-5.44-2.44-5.44-5.44v-47.6z"></path> <path d="M341.01 77.08c7.3 0 13.26-5.95 13.26-13.25 0-7.31-5.95-13.26-13.26-13.26a13.27 13.27 0 0 0-13.26 13.26c0 7.3 5.95 13.25 13.26 13.25zm0-17.68a4.43 4.43 0 1 1-.01 8.85 4.43 4.43 0 0 1 .01-8.85zM332.17 134.54h128.17v8.84H332.17zM332.17 156.64h128.17v8.84H332.17zM332.17 178.73h128.17v8.84H332.17zM398.46 200.83h61.88v8.84h-61.88z"></path> </g> </svg> 